<svg width="70" height="70" fill="none" xmlns="http://www.w3.org/2000/svg"><path fill-rule="evenodd" clip-rule="evenodd" d="M62.961 31.54c.026-.51.039-1.024.039-1.54C63 13.431 49.569 0 33 0 16.431 0 3 13.431 3 30c0 16.569 13.431 30 30 30 .516 0 1.03-.013 1.54-.039C20.307 59.203 9 47.421 9 33 9 18.088 21.088 6 36 6c14.422 0 26.203 11.307 26.961 25.54z" fill="#0B3D98"/><path fill-rule="evenodd" clip-rule="evenodd" d="M34 64c18.225 0 33-14.775 33-33 0-11.002-5.384-20.746-13.66-26.742C63.335 10.508 70 21.715 70 34.5 70 54.106 54.33 70 35 70S0 54.106 0 34.5c0-4.446.806-8.7 2.277-12.623A33.018 33.018 0 001 31c0 18.225 14.775 33 33 33z" fill="#0B3D98"/><path fill-rule="evenodd" clip-rule="evenodd" d="M56.778 44.492l.24-1.011-.797.7-1.274-.234-1.195-.233.876-.389-1.593-.077c.107-.854.055-1.35-.239-2.255-.398-.922-.869-1.338-2.23-1.867-1.042-.16-1.633-.176-2.708 0l-2.628.311-2.23.311.637 1.556.717 1.477 1.115 1.477c.733.66 1.28.974 2.39 1.478l-1.036 1.4c-.361.622-.532 1.002-.637 1.866-.097.908-.107 1.474 0 2.643.057.932.118 1.432.318 2.255l.24 2.1.318-.156c1.866-1.067 3.114-1.603 5.575-2.488 1.739-.618 2.38-1.003 3.345-1.71 1.06-.831 1.528-1.378 1.911-2.644.144-.852.14-1.364 0-2.333-.274-.95-.527-1.422-1.115-2.177zm-6.053 1.322h-.557v.233l.956.155c.206.034.31.068.477.156.032.1.037.153 0 .233-.116.076-.185.11-.318.156h-2.15a4.672 4.672 0 00-.717.389c-.162.094-.235.172-.319.388.112.09.18.126.319.156.28.052.437.057.717 0 .05-.043.066-.078.08-.156a1.34 1.34 0 01.636 0 .64.64 0 01.319.156c.067.121.077.19 0 .31l-.319.234-1.035.856-.876.855c-.062.136-.064.22 0 .389.03.076.063.111.16.155.216 0 .318-.02.477-.078.34-.165.511-.27.796-.466l2.071-1.633 1.195-1.011 1.274-1.244-.08-.233h-1.433v-.156h-1.673v.156zm-4.699-4.51h.797l.796.31.876.234.717.233c.185.061.263.121.398.233l.399.078-.638.156-.716.233-.558.389c-.18.069-.227.045-.3.009l-.018-.01.398-.621a.58.58 0 00-.319-.233c-.278-.098-.435-.101-.716-.078l-.717.31-.08-.232.717-.234c.07-.132.067-.217 0-.389l-1.035-.31v-.078z" fill="#69CD72"/><path d="M13.818 27.405A4.5 4.5 0 0115.714 27a4.5 4.5 0 011.896.405c.59.265 1.088.624 1.497 1.078.412.45.735.98.967 1.592.236.607.355 1.247.355 1.922 0 .903-.2 1.735-.6 2.495a4.68 4.68 0 01-1.683 1.827c-.723.454-1.533.681-2.432.681a4.506 4.506 0 01-2.438-.681 4.746 4.746 0 01-1.683-1.827A5.322 5.322 0 0111 31.997c0-.675.116-1.315.348-1.922a5.045 5.045 0 01.968-1.591 4.499 4.499 0 011.502-1.08zm3.373 2.002c-.425-.278-.918-.418-1.477-.418s-1.05.14-1.476.418a2.644 2.644 0 00-.961 1.1 3.41 3.41 0 00-.323 1.49c0 .84.252 1.553.755 2.137.503.585 1.171.877 2.005.877.834 0 1.503-.292 2.006-.877.503-.584.755-1.297.755-2.137a3.41 3.41 0 00-.323-1.49 2.645 2.645 0 00-.96-1.1zm9.487-2.245v1.8H24.04c-.228 0-.4.07-.516.21a.767.767 0 00-.174.518c0 .117.067.25.2.398.138.149.314.304.529.466.215.161.453.337.716.526.262.184.522.384.78.6a7 7 0 01.716.66c.215.225.389.475.522.749.138.27.207.542.207.816 0 .288-.026.564-.078.83a3.09 3.09 0 01-.258.782 2.44 2.44 0 01-.477.68 2.152 2.152 0 01-.755.46 2.907 2.907 0 01-1.044.174h-3.09v-1.935h3.038a.564.564 0 00.432-.189.722.722 0 00.174-.499c0-.134-.069-.28-.206-.438a3.015 3.015 0 00-.522-.472 20.007 20.007 0 00-.716-.512 13.067 13.067 0 01-.787-.6 7.024 7.024 0 01-.71-.682 3.122 3.122 0 01-.528-.816c-.134-.31-.2-.629-.2-.957 0-.427.069-.812.206-1.153a2.14 2.14 0 01.555-.81 2.54 2.54 0 01.735-.451c.262-.104.529-.155.8-.155h3.089zm3.489 9.669h-1.954V28.41c0-.413.122-.75.367-1.011.245-.265.572-.398.98-.398.181 0 .349.03.504.088.159.058.292.13.4.215.111.086.219.196.322.33.103.131.187.255.251.372.065.117.132.252.2.404l2.27 4.956h.04v-6.203H35.5v8.442c0 .418-.086.755-.258 1.012-.172.256-.451.384-.838.384-.379 0-.68-.11-.903-.33-.22-.225-.451-.598-.697-1.12l-2.611-5.65-.026.027v6.904zm9.344-9.426A4.5 4.5 0 0141.408 27a4.5 4.5 0 011.896.405 4.43 4.43 0 011.496 1.078c.413.45.735.98.967 1.592.237.607.355 1.247.355 1.922 0 .903-.2 1.735-.6 2.495a4.68 4.68 0 01-1.683 1.827c-.722.454-1.533.681-2.431.681a4.506 4.506 0 01-2.438-.681 4.745 4.745 0 01-1.683-1.827 5.322 5.322 0 01-.594-2.495c0-.675.116-1.315.349-1.922a5.047 5.047 0 01.967-1.591 4.498 4.498 0 011.502-1.08zm3.373 2.002c-.425-.278-.917-.418-1.476-.418-.56 0-1.052.14-1.477.418a2.645 2.645 0 00-.961 1.1 3.407 3.407 0 00-.323 1.49c0 .84.252 1.553.755 2.137.503.585 1.172.877 2.006.877.834 0 1.502-.292 2.005-.877.503-.584.755-1.297.755-2.137 0-.544-.108-1.041-.323-1.49a2.643 2.643 0 00-.96-1.1zm3.535-2.245h2.083l1.625 7.43h.026l1.786-7.43h2.083l-2.057 8.125a4.34 4.34 0 01-.232.702 2.1 2.1 0 01-.342.532 1.298 1.298 0 01-.523.358c-.21.08-.458.121-.741.121-.55 0-.961-.144-1.232-.432-.27-.292-.473-.719-.606-1.28l-1.87-8.126zm9.996 9.669h-2.058v-6.298c0-.35.037-.69.11-1.018.073-.328.194-.645.361-.95.172-.31.383-.58.632-.81.254-.229.57-.411.948-.546.379-.14.8-.209 1.264-.209.465 0 .886.07 1.264.209.383.135.699.317.948.546.254.23.465.5.632.81.172.305.295.622.368.95.077.328.116.668.116 1.018v6.298h-2.064v-3.479h-2.005v-1.881h2.005v-1.295c0-.391-.1-.706-.303-.944-.198-.238-.518-.357-.96-.357-.444 0-.764.119-.962.357-.197.238-.296.553-.296.944v6.655z" fill="#0B3D98"/></svg>