<svg xmlns="http://www.w3.org/2000/svg"><symbol viewBox="0 0 50 51" id="header-logo"><path fill-rule="evenodd" clip-rule="evenodd" d="M44.976 23.524A21.9 21.9 0 0045 22.5C45 10.626 35.374 1 23.5 1S2 10.626 2 22.5 11.626 44 23.5 44a21.9 21.9 0 001.024-.024C14.208 43.468 6 34.942 6 24.5 6 13.73 14.73 5 25.5 5c10.442 0 18.968 8.208 19.476 18.524z" fill="#0B3D98"/><path fill-rule="evenodd" clip-rule="evenodd" d="M25 51c13.807 0 25-11.417 25-25.5S38.807 0 25 0l-.253.001C37.612.134 48 10.604 48 23.5 48 36.479 37.479 47 24.5 47S1 36.479 1 23.5A23.416 23.416 0 017.213 7.581C2.753 12.187 0 18.515 0 25.5 0 39.583 11.193 51 25 51z" fill="#0B3D98"/><path fill-rule="evenodd" clip-rule="evenodd" d="M41.104 32.877l.175-.714-.584.494-.934-.165-.876-.164.642-.275-1.168-.055c.079-.603.04-.952-.175-1.591-.292-.651-.637-.945-1.636-1.318-.764-.113-1.197-.125-1.985 0l-1.928.22-1.635.22.467 1.097.526 1.043.818 1.043c.537.465.938.687 1.752 1.043l-.76.988c-.265.439-.39.707-.467 1.317-.07.641-.078 1.04 0 1.866.042.657.087 1.01.234 1.592L33.745 41l.234-.11c1.368-.753 2.283-1.132 4.088-1.756 1.275-.436 1.745-.708 2.453-1.208.778-.586 1.12-.972 1.402-1.866.105-.6.103-.963 0-1.647-.201-.67-.387-1.003-.818-1.536zm-4.439.933h-.408v.164l.7.11a.999.999 0 01.35.11c.024.071.027.108 0 .164a.912.912 0 01-.233.11h-1.577a3.47 3.47 0 00-.525.275.453.453 0 00-.234.274.49.49 0 00.234.11c.205.037.32.04.525 0 .037-.03.049-.055.059-.11.186-.037.287-.035.467 0 .094.02.147.041.233.11.05.086.057.134 0 .22l-.233.164-.76.604-.642.604c-.045.096-.047.156 0 .274.023.054.047.079.117.11a.896.896 0 00.35-.055c.25-.117.375-.19.584-.33l1.519-1.152.876-.714.934-.878-.058-.164h-1.051v-.11h-1.227v.11zm-3.446-3.184h.584l.585.22.642.164.526.165a.767.767 0 01.292.165l.292.055-.468.11-.525.164-.409.274c-.133.049-.166.033-.22.007l-.014-.007.292-.439a.424.424 0 00-.233-.164 1.116 1.116 0 00-.526-.055l-.526.22-.058-.165.526-.165c.05-.093.05-.154 0-.274l-.76-.22v-.055z" fill="#69CD72"/><path d="M10.03 20.283A3.306 3.306 0 0111.394 20c.486 0 .941.094 1.365.283a3.19 3.19 0 011.078.755c.297.315.53.686.696 1.114.17.425.256.874.256 1.346a3.61 3.61 0 01-.432 1.746A3.314 3.314 0 0111.394 27a3.314 3.314 0 01-2.967-1.756A3.641 3.641 0 018 23.498c0-.472.084-.92.25-1.346.171-.428.403-.799.697-1.114a3.24 3.24 0 011.082-.755zm2.428 1.402a1.937 1.937 0 00-1.064-.293c-.402 0-.757.098-1.063.293a1.868 1.868 0 00-.692.77 2.331 2.331 0 00-.232 1.043c0 .588.181 1.087.543 1.496.362.409.844.614 1.444.614s1.082-.205 1.444-.614c.363-.41.544-.908.544-1.496 0-.381-.078-.729-.232-1.044a1.868 1.868 0 00-.692-.769zm6.83-1.572v1.26h-1.9c-.163 0-.287.05-.37.147a.528.528 0 00-.126.363c0 .082.048.175.144.279.099.104.226.212.38.326.155.113.327.236.516.368.189.129.376.269.562.42.189.148.36.302.515.462.155.158.28.332.377.524.099.19.148.38.148.571 0 .202-.018.395-.056.581a2.125 2.125 0 01-.185.548c-.09.182-.205.341-.344.476-.14.133-.32.24-.543.321a2.14 2.14 0 01-.752.123h-2.225v-1.355h2.187a.411.411 0 00.311-.132.497.497 0 00.126-.35c0-.094-.05-.196-.149-.306a2.155 2.155 0 00-.376-.33 14.451 14.451 0 00-.515-.36 9.353 9.353 0 01-.567-.42 4.992 4.992 0 01-.51-.476 2.177 2.177 0 01-.381-.571 1.641 1.641 0 01-.144-.67c0-.3.05-.568.148-.807.103-.24.236-.428.4-.567.164-.138.34-.244.53-.316.188-.073.38-.109.575-.109h2.224zm2.512 6.769h-1.407v-5.896c0-.289.088-.525.265-.707.176-.186.412-.279.706-.279a1.082 1.082 0 01.882.444c.074.091.135.178.18.26.047.081.095.175.145.282l1.634 3.47h.028v-4.343h1.407v5.91c0 .293-.062.529-.186.708-.123.18-.325.269-.603.269-.273 0-.49-.077-.65-.231-.158-.158-.325-.419-.502-.784l-1.88-3.955-.019.019v4.833zm6.728-6.599c.424-.189.88-.283 1.366-.283.486 0 .94.094 1.365.283a3.19 3.19 0 011.077.755c.297.315.53.686.696 1.114.17.425.256.874.256 1.346a3.61 3.61 0 01-.432 1.746A3.314 3.314 0 0129.893 27a3.314 3.314 0 01-2.967-1.756 3.64 3.64 0 01-.427-1.746c0-.472.084-.92.25-1.346.171-.428.403-.799.697-1.114a3.24 3.24 0 011.082-.755zm2.429 1.402a1.937 1.937 0 00-1.064-.293 1.94 1.94 0 00-1.063.293 1.868 1.868 0 00-.692.77 2.33 2.33 0 00-.232 1.043c0 .588.181 1.087.543 1.496.363.409.844.614 1.444.614.601 0 1.082-.205 1.444-.614.363-.41.544-.908.544-1.496 0-.381-.078-.729-.232-1.044a1.868 1.868 0 00-.692-.769zm2.544-1.572h1.5l1.17 5.202h.019l1.286-5.202h1.5l-1.481 5.688a2.98 2.98 0 01-.167.491c-.062.135-.145.26-.247.373a.936.936 0 01-.376.25c-.151.057-.33.085-.534.085-.396 0-.692-.1-.887-.302-.195-.205-.34-.504-.436-.897L33.5 20.113zm7.198 6.769h-1.482v-4.409c0-.245.027-.483.08-.712.052-.23.139-.452.26-.666.123-.217.275-.406.454-.566.183-.16.41-.288.683-.383.272-.097.576-.146.91-.146.334 0 .638.049.91.146a1.966 1.966 0 011.138.95c.124.213.212.435.264.665.056.23.084.467.084.712v4.409h-1.486v-2.436H41.07V23.13h1.444v-.906c0-.274-.073-.494-.218-.66-.142-.167-.373-.25-.692-.25-.319 0-.55.083-.692.25-.142.166-.213.386-.213.66v4.659z" fill="#0B3D98"/></symbol><symbol viewBox="0 0 7 5" id="header-arrow"><path d="M3.212 4.856c.032.044.075.08.125.106a.364.364 0 00.45-.106L6.937.523a.323.323 0 00-.106-.475A.363.363 0 006.65 0H.35a.364.364 0 00-.181.049.341.341 0 00-.129.13.32.32 0 00.022.344l3.15 4.333z" fill="currentColor"/></symbol><symbol viewBox="0 0 13 13" id="accordion-btn"><path fill="currentColor" d="M0 6h13v1H0z"/><path fill="currentColor" d="M6 0h1v13H6z"/></symbol><symbol viewBox="0 0 19 19" id="furniture-arrow"><path d="M3.75.25v1.875h11.803L0 17.678 1.322 19 16.875 3.447V15.25h1.875v-15h-15z" fill="#fff"/></symbol><symbol viewBox="0 0 25 16" id="slider-prev"><path fill-rule="evenodd" clip-rule="evenodd" d="M25 8a.887.887 0 00-.893-.889H3.05L8.669 1.52A.89.89 0 007.695.068a.894.894 0 00-.29.193L.262 7.37a.889.889 0 000 1.258l7.143 7.11a.896.896 0 001.526-.629.886.886 0 00-.262-.63L3.049 8.89h21.058A.895.895 0 0025 8z" fill="currentColor"/></symbol><symbol viewBox="0 0 25 16" id="slider-next"><path fill-rule="evenodd" clip-rule="evenodd" d="M0 8a.887.887 0 01.893-.889H21.95L16.331 1.52A.888.888 0 0116.963 0c.237 0 .465.094.632.26l7.143 7.11a.887.887 0 010 1.26l-7.143 7.11a.896.896 0 01-1.526-.63c0-.236.095-.462.262-.63l5.62-5.591H.892A.895.895 0 010 8z" fill="currentColor"/></symbol><symbol viewBox="0 0 11 11" id="check"><path d="M2 6l2.625 3L9 3" stroke="#0B3D98" stroke-width="2" stroke-linecap="round" stroke-linejoin="round"/></symbol><symbol viewBox="0 0 100 100" id="article-play"><path d="M50 6C25.702 6 6 25.702 6 50s19.702 44 44 44 44-19.702 44-44S74.298 6 50 6zm0 80.536c-20.173 0-36.536-16.363-36.536-36.536 0-20.173 16.363-36.536 36.536-36.536 20.173 0 36.536 16.363 36.536 36.536 0 20.173-16.363 36.536-36.536 36.536z" fill="#fff"/><path d="M70.356 48.244L41.468 27.3A1.553 1.553 0 0039 28.556v41.89c0 1.275 1.444 1.996 2.468 1.256l28.888-20.945a1.548 1.548 0 000-2.513z" fill="#fff"/></symbol><symbol viewBox="0 0 14 9" id="filter"><path d="M4.5 8h5a.5.5 0 01.09.992L9.5 9h-5a.5.5 0 01-.09-.992L4.5 8h5-5zm-2-4h9a.5.5 0 01.09.992L11.5 5h-9a.5.5 0 01-.09-.992L2.5 4h9-9zm-2-4h13a.5.5 0 01.09.992L13.5 1H.5A.5.5 0 01.41.008L.5 0h13-13z" fill="#040D23"/></symbol></svg>